HIERARCHY
ROOT hip
{
	OFFSET 0.000000 0.000000 0.000000 
	CHANNELS 6 Xposition Yposition Zposition Xrotation Zrotation Yrotation
	JOINT abdomen
	{
		OFFSET 0.000000 3.402643 0.000000 
		CHANNELS 3 Xrotation Zrotation Yrotation
		JOINT chest
		{
			OFFSET 0.000000 8.438565 -0.680529 
			CHANNELS 3 Xrotation Zrotation Yrotation
			JOINT neck
			{
				OFFSET 0.000000 10.207942 -0.272212 
				CHANNELS 3 Xrotation Zrotation Yrotation
				JOINT head
				{
					OFFSET 0.000000 3.130431 0.000000 
					CHANNELS 3 Xrotation Zrotation Yrotation
					End Site
					{
						OFFSET 0.000000 3.130435 0.000000 
					}
				}
			}
			JOINT lCollar
			{
				OFFSET 3.470700 6.669187 -0.816635 
				CHANNELS 3 Yrotation Zrotation Xrotation
				JOINT lShldr
				{
					OFFSET 3.198488 0.000000 0.000000 
					CHANNELS 3 Zrotation Yrotation Xrotation
					JOINT lForeArm
					{
						OFFSET 10.139888 0.000000 0.000000 
						CHANNELS 3 Yrotation Zrotation Xrotation
						JOINT lHand
						{
							OFFSET 8.370511 0.000000 0.000000 
							CHANNELS 3 Zrotation Yrotation Xrotation
							End Site
							{
								OFFSET 4.083176 0.000000 0.000000 
							}
						}
					}
				}
			}
			JOINT rCollar
			{
				OFFSET -3.470700 6.669187 -0.816635 
				CHANNELS 3 Yrotation Zrotation Xrotation
				JOINT rShldr
				{
					OFFSET -3.198488 0.000000 0.000000 
					CHANNELS 3 Zrotation Yrotation Xrotation
					JOINT rForeArm
					{
						OFFSET -10.139888 0.000000 0.000000 
						CHANNELS 3 Yrotation Zrotation Xrotation
						JOINT rHand
						{
							OFFSET -8.370511 0.000000 0.000000 
							CHANNELS 3 Zrotation Yrotation Xrotation
							End Site
							{
								OFFSET -4.083176 0.000000 0.000000 
							}
						}
					}
				}
			}
		}
	}
	JOINT lThigh
	{
		OFFSET 5.308129 -1.633274 1.361059 
		CHANNELS 3 Xrotation Zrotation Yrotation
		JOINT lShin
		{
			OFFSET -2.041588 -20.007561 0.000000 
			CHANNELS 3 Xrotation Zrotation Yrotation
			JOINT lFoot
			{
				OFFSET 0.000000 -19.190928 -1.224953 
				CHANNELS 3 Xrotation Yrotation Zrotation
				End Site
				{
					OFFSET 0.000000 -2.449906 4.627600 
				}
			}
		}
	}
	JOINT rThigh
	{
		OFFSET -5.308129 -1.633274 1.361059 
		CHANNELS 3 Xrotation Zrotation Yrotation
		JOINT rShin
		{
			OFFSET 2.041588 -20.007561 0.000000 
			CHANNELS 3 Xrotation Zrotation Yrotation
			JOINT rFoot
			{
				OFFSET 0.000000 -19.190928 -1.224953 
				CHANNELS 3 Xrotation Yrotation Zrotation
				End Site
				{
					OFFSET 0.000000 -2.449906 4.627600 
				}
			}
		}
	}
}
MOTION
Frames: 14
Frame Time: 0.041667
0.020916 30.015955 -17.282892 -4.464168 -0.386842 -0.779546 24.366898 0.122621 6.355657 -14.618143 -7.623003 -9.073859 0.000000 8.421570 29.225096 7.476977 0.460797 -13.594794 -6.920080 2.669127 -0.511263 -63.108650 -12.471520 14.586324 -60.023674 8.153530 -14.368797 15.183538 -28.535225 35.410820 -6.261392 12.577478 -6.944943 57.972218 0.902723 17.411892 72.555214 2.317686 -11.204999 -4.200657 27.414351 51.304176 -72.334602 0.323660 -2.157609 112.526993 4.441712 -9.122486 -35.336239 6.293008 -0.572230 -76.725166 -3.290999 -1.523322 106.024117 2.716195 9.608510 -23.025547 4.812108 -7.613425 
-0.032968 29.913752 -17.634165 -2.058400 -0.396959 -0.139853 22.741100 -0.675684 -0.208209 -14.076600 -7.035940 -8.852290 0.000000 8.665311 29.559818 8.548635 0.222221 -12.918348 -2.184370 2.222140 -0.391122 -62.187267 -5.454715 15.973226 -66.119583 8.466186 -6.598482 23.567301 -30.879700 40.804298 -4.130780 11.378700 -7.326240 63.104000 5.961870 17.245001 68.296402 10.375300 -5.007880 -12.508200 20.652399 53.519100 -75.851501 -0.362678 -1.288945 111.534897 5.624381 -9.115639 -33.237862 6.798357 -0.869692 -76.324715 -2.522648 -6.616431 107.645546 1.062214 9.535759 -25.166101 9.954155 -11.981552 
-0.052702 29.887569 -17.742041 -2.355244 -0.400345 0.073362 19.615187 -1.018402 -7.924814 -12.785830 -4.766622 -6.749368 0.000000 8.847106 29.802458 8.884057 -0.013756 -11.430163 7.237269 0.543584 -0.114272 -61.201385 2.692005 19.744881 -70.077438 0.497218 14.361539 31.470915 -26.678234 33.077518 -0.150963 10.448574 -8.255801 67.384750 16.065086 16.035393 57.409599 27.328526 10.145100 -18.916862 11.377505 48.459251 -78.127678 2.177086 -1.787422 105.697212 5.293406 -9.467759 -24.982185 4.213423 -2.874913 -73.017860 0.233218 -12.607700 109.141037 -3.155614 8.903655 -27.800877 12.208461 -15.289043 
-0.046857 29.901548 -17.690035 -4.040154 -0.398677 -0.033274 16.294701 -0.853761 -14.388000 -11.381400 -1.929630 -3.943400 0.000000 8.960740 29.950136 8.830590 -0.194177 -9.941979 16.967268 -1.452128 0.187200 -60.391201 9.594647 23.925091 -71.941437 -9.955248 37.603230 37.027199 -19.904356 20.238894 6.508690 8.905030 -9.501250 67.422203 11.971300 13.735500 48.489498 41.396599 23.689800 -32.088600 14.311500 37.232201 -77.659035 4.853873 -1.692365 99.706985 4.956100 -9.804832 -17.963745 1.652825 -4.006384 -75.255615 3.860119 -17.296734 102.810570 -7.408894 8.932399 -18.482248 6.934257 -14.788655 
-0.039551 29.915203 -17.637327 -5.058400 -0.397000 -0.139900 14.729000 -0.536634 -16.951099 -10.698200 -0.371511 -2.388280 0.000000 9.000000 30.000000 8.735580 -0.266087 -9.265530 21.446072 -2.416937 0.328710 -60.054882 12.506025 25.899477 -72.408012 -15.157928 48.582516 39.125999 -16.357601 13.473715 12.638449 7.115700 -10.362176 63.805771 -7.091187 11.684497 47.878780 43.401211 26.689901 -48.619583 29.327204 27.357258 -76.880005 6.876766 -1.740811 93.292946 4.553874 -10.096928 -11.548886 -0.300608 -5.088938 -76.475807 6.386488 -19.626026 95.661789 -9.409847 9.958652 -9.865811 3.548293 -13.775822 
-0.039551 29.915203 -17.637327 -5.058400 -0.397000 -0.139900 14.729000 -0.536631 -16.951099 -10.698200 -0.371510 -2.388282 0.000000 9.000000 30.000000 8.735582 -0.266088 -9.265527 21.446072 -2.416937 0.328710 -60.054882 12.506025 25.899477 -72.408012 -15.157928 48.582516 39.125999 -16.357601 13.473715 12.638449 7.115700 -10.362176 63.805771 -7.091187 11.684497 47.878780 43.401211 26.689901 -48.619583 29.327204 27.357258 -76.880013 6.876591 -1.740714 93.292625 4.553653 -10.106569 -11.549127 -0.291027 -5.087972 -76.475800 6.385386 -19.625362 95.661804 -9.409735 9.958650 -9.865811 3.548294 -13.775821 
-0.039551 29.915203 -17.637327 -5.058400 -0.397000 -0.139900 14.729000 -0.536627 -16.951099 -10.698200 -0.371509 -2.388284 0.000000 9.000000 30.000000 8.735584 -0.266090 -9.265524 21.446072 -2.416937 0.328710 -60.054882 12.506025 25.899477 -72.408012 -15.157928 48.582516 39.125999 -16.357601 13.473715 12.638449 7.115700 -10.362176 63.805771 -7.091187 11.684497 47.878780 43.401211 26.689901 -48.619583 29.327204 27.357258 -76.880020 6.876426 -1.740620 93.302521 4.556022 -10.096305 -11.558665 -0.300179 -5.088923 -76.475792 6.384307 -19.624722 95.661827 -9.409651 9.958615 -9.865811 3.548292 -13.775822 
-0.039551 29.915203 -17.637327 -5.058400 -0.397000 -0.139900 14.729000 -0.536624 -16.951099 -10.698200 -0.371508 -2.388286 0.000000 9.000000 30.000000 8.735586 -0.266091 -9.265521 21.446072 -2.416937 0.328710 -60.054882 12.506025 25.899477 -72.408012 -15.157928 48.582516 39.125999 -16.357601 13.473715 12.638449 7.115700 -10.362176 63.805771 -7.091187 11.684497 47.878780 43.401211 26.689901 -48.619583 29.327204 27.357258 -76.860405 6.876719 -1.740813 93.292755 4.554233 -10.098082 -11.568707 -0.289274 -5.087846 -76.475792 6.383233 -19.624077 95.661850 -9.409578 9.958576 -9.865811 3.548292 -13.775822 
-0.039551 29.915203 -17.637327 -5.058400 -0.397000 -0.139900 14.729000 -0.536620 -16.951099 -10.698200 -0.371507 -2.388288 0.000000 9.000000 30.000000 8.735588 -0.266092 -9.265518 21.446072 -2.416937 0.328710 -60.054882 12.506025 25.899477 -72.408012 -15.157928 48.582516 39.125999 -16.357601 13.473715 12.638449 7.115700 -10.362176 63.805771 -7.091187 11.684497 47.878780 43.401211 26.689901 -48.619583 29.327204 27.357258 -76.860405 6.876740 -1.740851 93.282990 4.553382 -10.098924 -11.558928 -0.289705 -5.087863 -76.475784 6.382157 -19.623430 95.661865 -9.409494 9.958542 -9.865812 3.548292 -13.775822 
-0.039551 29.915203 -17.637327 -5.058400 -0.397000 -0.139900 14.729000 -0.536617 -16.951099 -10.698200 -0.371505 -2.388290 0.000000 9.000000 30.000000 8.735590 -0.266093 -9.265515 21.446072 -2.416937 0.328710 -60.054882 12.506025 25.899477 -72.408012 -15.157928 48.582516 39.125999 -16.357601 13.473715 12.638449 7.115700 -10.362176 63.805771 -7.091187 11.684497 47.878780 43.401211 26.689901 -48.619583 29.327204 27.357258 -76.870232 6.875819 -1.740029 93.292778 4.554632 -10.097488 -11.558676 -0.299733 -5.088876 -76.504799 6.375044 -19.633150 95.661217 -9.416245 9.963157 -9.837171 3.541201 -13.767607 
-0.039551 29.915203 -17.637327 -5.058400 -0.397000 -0.139900 14.729000 -0.536614 -16.951099 -10.698200 -0.371504 -2.388292 0.000000 9.000000 30.000000 8.735592 -0.266095 -9.265512 21.446072 -2.416937 0.328710 -60.054882 12.506025 25.899477 -72.408012 -15.157928 48.582516 39.125999 -16.357601 13.473715 12.638449 7.115700 -10.362176 63.805771 -7.091187 11.684497 47.878780 43.401211 26.689901 -48.619583 29.327204 27.357258 -76.870239 6.875455 -1.739798 93.292786 4.554859 -10.097160 -11.558676 -0.299733 -5.088876 -76.475777 6.380012 -19.622145 95.652344 -9.409079 9.950217 -9.852616 3.556577 -13.775806 
-0.039551 29.915203 -17.637327 -5.058400 -0.397000 -0.139900 14.729000 -0.536610 -16.951099 -10.698200 -0.371503 -2.388294 0.000000 9.000000 30.000000 8.735594 -0.266096 -9.265510 21.446072 -2.416937 0.328710 -60.054882 12.506025 25.899477 -72.408012 -15.157928 48.582516 39.125999 -16.357601 13.473715 12.638449 7.115700 -10.362176 63.805771 -7.091187 11.684497 47.878780 43.401211 26.689901 -48.619583 29.327204 27.357258 -76.860428 6.876235 -1.740566 93.283020 4.553425 -10.098584 -11.558928 -0.289703 -5.087863 -76.475693 6.382636 -19.624260 95.661659 -9.414707 9.954599 -9.866764 3.545763 -13.766267 
-0.039551 29.915203 -17.637327 -5.058400 -0.397000 -0.139900 14.729000 -0.536607 -16.951099 -10.698200 -0.371502 -2.388296 0.000000 9.000000 30.000000 8.735596 -0.266097 -9.265507 21.446072 -2.416937 0.328710 -60.054882 12.506025 25.899477 -72.408012 -15.157928 48.582516 39.125999 -16.357601 13.473715 12.638449 7.115700 -10.362176 63.805771 -7.091187 11.684497 47.878780 43.401211 26.689901 -48.619583 29.327204 27.357258 -76.860435 6.876061 -1.740469 93.283035 4.553446 -10.098466 -11.558928 -0.289704 -5.087863 -76.485519 6.379617 -19.624050 95.661644 -9.413079 9.956310 -9.856316 3.545853 -13.776330 
-0.039551 29.915203 -17.637327 -5.058400 -0.397000 -0.139900 14.729000 -0.536603 -16.951099 -10.698200 -0.371501 -2.388298 0.000000 9.000000 30.000000 8.735598 -0.266099 -9.265503 21.446072 -2.416937 0.328710 -60.054882 12.506025 25.899477 -72.408012 -15.157928 48.582516 39.125999 -16.357601 13.473715 12.638449 7.115700 -10.362176 63.805771 -7.091187 11.684497 47.878780 43.401211 26.689901 -48.619583 29.327204 27.357258 -76.870255 6.875140 -1.739646 93.283043 4.554036 -10.097779 -11.549139 -0.290580 -5.087926 -76.485512 6.378541 -19.623405 95.661659 -9.413001 9.956273 -9.856315 3.545855 -13.776330 
